PathFileType	4	(X/Y/Z)	C:\Git\research_data\Projects\torsion_deformities_healthy_kinematics\simulations\TD01\pre\static_01\marker_experimental.trc
DataRate	CameraRate	NumFrames	NumMarkers	Units	OrigDataRate	OrigDataStartFrame	OrigNumFrames
200	200	4	38	mm	200	26	200
Frame#	Time	C7			T10			CLAV			STRN			RBAK			LASI			RASI			SACR			RT1			RT2			RT3			RKNE			RS1			RS2			RS3			RANK			RHEE			RTOE			LT1			LT2			LT3			LKNE			LS1			LS2			LS3			LANK			LHEE			LTOE			LANM			RANM			RKNM			LKNM			RHJC			LHJC			LKJC			LAJC			RKJC			RAJC		
		X1	Y1	Z1	X2	Y2	Z2	X3	Y3	Z3	X4	Y4	Z4	X5	Y5	Z5	X6	Y6	Z6	X7	Y7	Z7	X8	Y8	Z8	X9	Y9	Z9	X10	Y10	Z10	X11	Y11	Z11	X12	Y12	Z12	X13	Y13	Z13	X14	Y14	Z14	X15	Y15	Z15	X16	Y16	Z16	X17	Y17	Z17	X18	Y18	Z18	X19	Y19	Z19	X20	Y20	Z20	X21	Y21	Z21	X22	Y22	Z22	X23	Y23	Z23	X24	Y24	Z24	X25	Y25	Z25	X26	Y26	Z26	X27	Y27	Z27	X28	Y28	Z28	X29	Y29	Z29	X30	Y30	Z30	X31	Y31	Z31	X32	Y32	Z32	X33	Y33	Z33	X34	Y34	Z34	X35	Y35	Z35	X36	Y36	Z36	X37	Y37	Z37	X38	Y38	Z38	

26	0.125000	611.339233	1224.383911	306.074829	608.633850	1033.402832	301.356964	624.952393	1227.310425	172.287857	624.968567	1106.639771	98.713646	704.088196	1157.432861	325.517883	517.204163	851.363220	129.313339	720.543457	860.176086	144.759445	607.148804	882.282227	300.010681	792.308960	662.447021	195.039169	804.239075	611.640015	236.886917	794.704651	596.573059	187.220947	816.035339	470.625732	225.292801	858.263916	359.093506	294.062988	859.344971	294.673492	311.464691	877.196960	302.147949	264.785065	895.137512	94.539932	285.669891	834.843323	74.299164	313.343872	920.435486	65.796867	144.435349	438.880920	664.211487	199.732803	431.336639	605.658508	230.970825	439.263611	600.662659	179.775085	412.022217	460.575043	226.017410	369.150848	341.490295	298.393951	361.766724	277.084412	310.748383	350.590576	288.804657	262.282928	336.543854	96.739143	308.889893	386.760986	76.891701	326.673615	285.231964	64.360786	164.694092	401.933624	91.980370	250.214172	817.378235	103.290131	239.552841	712.967224	431.491211	216.978683	524.662415	421.033295	221.106567	691.387991	795.778325	203.239792	542.639574	789.331465	191.940531	468.342316	440.804169	223.561989	369.238739	94.359756	279.552032	764.501282	451.058472	221.135742	856.257874	98.915031	262.611366	
27	0.130000	611.403625	1224.392700	306.090729	608.685059	1033.399902	301.397461	624.994629	1227.299683	172.283493	625.018127	1106.654419	98.711479	704.156189	1157.469849	325.514313	517.227661	851.403198	129.286911	720.558655	860.178833	144.748306	607.152222	882.247498	299.990021	792.290588	662.445923	194.972733	804.234253	611.635742	236.840912	794.689148	596.547729	187.189484	816.032837	470.615601	225.268570	858.257568	359.048035	294.064392	859.335449	294.682861	311.456909	877.182190	302.143860	264.754944	895.141418	94.544296	285.667419	834.844788	74.302856	313.342621	920.442627	65.799149	144.436050	438.916565	664.193542	199.685135	431.347778	605.667542	230.893158	439.243195	600.685913	179.691696	412.011505	460.585327	225.943054	369.136353	341.501923	298.359161	361.759064	277.081238	310.696777	350.591675	288.793488	262.240295	336.538696	96.746216	308.880005	386.769257	76.912323	326.671143	285.237610	64.359016	164.697861	401.904480	91.988029	250.070770	817.373230	103.388466	239.430557	712.968506	431.476349	216.970016	524.872864	420.820557	221.288467	691.391063	795.767802	203.202094	542.648097	789.348152	191.891601	468.442184	440.702942	223.615761	369.221588	94.367123	279.475388	764.500671	451.045975	221.119293	856.257324	98.966381	262.548988	
28	0.135000	611.452820	1224.391846	306.110535	608.742187	1033.390503	301.421722	625.048279	1227.305664	172.281769	625.065369	1106.675415	98.726852	704.226257	1157.479126	325.508636	517.223267	851.444885	129.271225	720.561523	860.187561	144.725967	607.143494	882.200317	299.991913	792.275879	662.435730	194.916031	804.242920	611.629700	236.794876	794.664917	596.540649	187.140244	816.026855	470.625854	225.251923	858.238770	359.085571	294.038513	859.322754	294.692352	311.446838	877.205994	302.166870	264.801575	895.129272	94.539795	285.671356	834.850647	74.308342	313.338135	920.445190	65.801186	144.437210	438.857971	664.210938	199.614655	431.337433	605.673157	230.797028	439.482147	600.659668	179.983200	412.003448	460.582275	225.873245	369.134308	341.505676	298.281494	361.755005	277.115814	310.649658	350.618073	288.807007	262.200500	336.548706	96.748627	308.869873	386.778412	76.923416	326.669159	285.240234	64.361862	164.693237	401.933746	91.975967	250.168213	817.380798	103.399429	239.426300	712.961121	431.480530	216.952515	524.863831	420.829224	221.206299	691.387799	795.752274	203.154303	542.639899	789.356750	191.848705	468.433640	440.705750	223.539772	369.241226	94.362297	279.519043	764.493988	451.053192	221.102219	856.255035	98.969612	262.548828	
29	0.140000	611.491577	1224.406128	306.128723	608.775330	1033.390747	301.490997	625.077698	1227.307617	172.275589	625.117615	1106.674683	98.745659	704.294678	1157.492554	325.514984	517.237122	851.486145	129.255356	720.571289	860.187378	144.706619	607.140198	882.170471	299.986023	792.266602	662.434509	194.858261	804.245605	611.628784	236.735779	794.636963	596.536072	187.084015	816.018494	470.611328	225.228790	858.298828	359.079285	294.065735	859.304932	294.683350	311.463806	877.173096	302.167297	264.762665	895.140259	94.546257	285.667938	834.848389	74.308083	313.331116	920.448303	65.795692	144.432449	438.844574	664.250549	199.530350	431.405304	605.621216	230.760345	439.305756	600.708313	179.621307	411.987946	460.587860	225.804962	369.130066	341.511993	298.197418	361.738556	277.114990	310.615204	350.594727	288.802124	262.148468	336.542633	96.768661	308.870667	386.780334	76.938805	326.670776	285.242279	64.362747	164.697403	401.916504	91.992592	250.090012	817.382263	103.401344	239.427505	712.940247	431.474426	216.939941	524.847839	420.832977	221.133987	691.388642	795.740603	203.116011	542.643298	789.375377	191.812926	468.417892	440.710419	223.469475	369.229568	94.380627	279.480339	764.479370	451.042877	221.084366	856.261261	98.973801	262.547722	
